<svg version="1.1" id="Layer_1" xmlns="http://www.w3.org/2000/svg" xmlns:xlink="http://www.w3.org/1999/xlink" x="0px" y="0px"
	 width="100%" viewBox="0 0 1008 1024" enable-background="new 0 0 1008 1024" xml:space="preserve">
<path fill="#000000" opacity="1.000000" stroke="none" 
	d="
M684.000000,1025.000000 
	C583.645752,1025.000000 483.291534,1025.000000 382.545471,1024.653320 
	C382.040466,1021.317566 381.654816,1018.308350 381.873993,1015.343872 
	C382.263275,1010.078369 379.929779,1006.669189 375.247375,1004.812073 
	C371.570038,1003.353516 368.897430,1000.546265 365.866089,998.251282 
	C361.925781,995.268005 362.305695,990.815613 366.469177,987.903259 
	C368.509430,986.476196 370.801575,985.337402 372.613861,983.670410 
	C377.030487,979.607971 376.741516,973.557556 372.052979,969.791870 
	C370.640717,968.657532 368.990601,967.765625 367.343262,966.987366 
	C361.572601,964.261292 356.466827,960.668274 351.762299,956.324463 
	C346.896698,951.831970 342.128601,947.100830 335.585327,944.870789 
	C328.446320,942.437683 322.675262,937.970764 318.629028,931.696411 
	C315.100677,926.225159 310.851807,921.804871 305.065277,918.798767 
	C299.673248,915.997620 296.072418,911.697327 293.874969,905.927307 
	C290.775604,897.788818 288.360260,889.520264 287.187012,880.888672 
	C286.482330,875.704529 284.286163,871.364136 279.864288,868.330444 
	C273.995819,864.304321 270.304962,858.881531 268.293457,851.979797 
	C266.800751,846.858276 263.978333,842.175354 260.306458,838.240662 
	C256.297363,833.944641 252.913559,829.206543 249.859268,824.253723 
	C246.249924,818.400696 241.109406,815.774597 234.408295,815.960999 
	C230.041229,816.082458 226.274887,814.769226 222.845673,812.053467 
	C221.034668,810.619263 218.958572,809.457092 216.869003,808.447815 
	C205.192261,802.807556 194.449310,795.564209 186.446182,785.489319 
	C179.754440,777.065308 171.991989,770.451111 162.997040,764.940979 
	C159.572037,762.842834 157.144684,759.851990 156.464478,755.879456 
	C155.610916,750.894348 153.209076,746.929810 149.824738,743.278076 
	C147.579086,740.855042 145.715149,738.036194 143.929642,735.235596 
	C133.908646,719.517517 123.219170,704.195862 112.484825,689.023499 
	C107.104301,681.418457 101.809837,674.167725 98.440704,665.523010 
	C98.259956,665.059265 97.983017,664.633972 97.774979,664.179688 
	C92.645836,652.980347 86.940498,642.000793 85.670876,629.426147 
	C85.444305,627.182129 84.746216,624.531250 83.302559,622.944824 
	C77.658417,616.742554 76.408028,608.824341 73.594101,601.394226 
	C67.882820,586.313721 61.814529,571.513550 60.002045,555.226135 
	C59.047798,546.651062 56.952343,538.212769 56.926510,529.484497 
	C56.893867,518.455261 55.983948,507.510681 52.211140,497.009155 
	C51.085075,493.874786 50.740547,490.673737 52.702560,487.878448 
	C56.799759,482.041046 56.423405,475.585632 55.607788,469.097443 
	C54.964256,463.978180 53.609276,458.939667 53.109398,453.812714 
	C51.809269,440.477966 51.018024,427.036377 58.740246,415.108643 
	C66.349129,403.355957 71.514030,390.608856 75.020859,377.191620 
	C77.312645,368.423157 80.442230,359.974060 84.355629,351.910767 
	C90.314133,339.633606 99.465538,330.901215 113.215286,327.081268 
	C123.931541,324.104065 133.187332,318.284943 140.067413,309.072876 
	C143.160614,304.931244 143.248718,301.491272 140.099152,297.399078 
	C133.445023,288.753601 134.553864,279.232635 138.100906,269.882385 
	C141.646042,260.537201 148.623871,255.295395 158.715775,253.981979 
	C167.627197,252.822220 176.490326,251.246765 185.337372,249.647766 
	C197.459381,247.456848 212.233871,230.746948 208.363327,216.264496 
	C206.618179,209.734695 205.775543,202.941284 203.875168,196.345001 
	C199.281616,180.400558 202.900070,165.830170 213.841995,153.636978 
	C225.087784,141.105209 239.412872,131.829819 251.253555,119.854355 
	C258.248413,112.779861 266.713593,107.005653 271.419342,97.913948 
	C274.708282,91.559631 277.629059,84.996971 280.390625,78.392059 
	C283.774597,70.298515 288.212555,63.590363 297.026245,60.287415 
	C301.622742,58.564861 305.858032,55.627388 309.464691,52.054478 
	C317.957001,43.641582 326.303986,35.122654 334.308136,26.208364 
	C339.332642,20.612495 343.267609,16.353790 338.058258,9.072107 
	C337.176758,7.839966 337.187744,5.878181 337.050476,4.231487 
	C336.923615,2.709750 336.110291,1.804637 335.000000,1.000000 
	C449.687561,1.000000 564.375122,1.000000 679.295044,1.158370 
	C678.606873,1.941387 676.949280,2.293818 677.428406,3.716042 
	C679.885742,11.010186 679.343567,19.795755 688.499878,23.662066 
	C694.671509,26.268103 699.691895,30.876184 704.305542,35.720573 
	C716.928162,48.974510 732.456421,55.441387 750.623901,55.860416 
	C756.621643,55.998756 762.621887,56.038200 768.621338,56.090954 
	C781.178955,56.201385 792.084167,59.777180 800.554077,69.789619 
	C808.184631,78.809799 814.499878,88.864265 822.909241,97.278618 
	C829.267456,103.640503 834.908752,110.658836 839.453613,118.510361 
	C842.722107,124.156982 847.013672,129.052505 851.342590,133.918442 
	C866.834717,151.332535 881.475159,169.420425 886.320068,192.979065 
	C890.280212,212.235443 897.181641,230.275955 905.192505,248.140701 
	C912.600830,264.661438 923.302124,276.648834 941.284119,281.296478 
	C946.135132,282.550262 950.717712,284.624420 954.591309,287.969391 
	C959.381592,292.105927 964.198608,296.211853 968.960205,300.381165 
	C981.743042,311.574005 985.347900,326.008118 979.737732,341.822327 
	C972.254456,362.916107 980.215759,388.465759 995.035095,404.358276 
	C996.714600,406.159454 998.880920,407.986023 1001.640869,406.766113 
	C1004.085999,405.685364 1006.541931,406.153931 1009.000000,406.000000 
	C1009.000000,438.020905 1009.000000,470.041779 1008.741333,502.555359 
	C1007.064514,503.262177 1006.838501,504.516357 1006.269592,505.513092 
	C1002.102051,512.814392 1000.805176,520.633484 1000.815552,529.029907 
	C1000.837036,546.429260 998.617737,563.596008 993.106934,580.195679 
	C990.524170,587.975586 988.821472,595.947144 987.344910,603.982239 
	C985.357666,614.796509 983.421265,625.620117 981.418518,636.431458 
	C980.476135,641.518860 979.245972,646.514893 976.989563,651.232849 
	C972.096985,661.462708 970.930542,661.815430 962.156311,654.590881 
	C959.376160,652.301697 957.443237,652.552185 955.808655,655.657104 
	C953.868286,659.342834 952.150818,663.158630 950.020813,666.729492 
	C941.487305,681.035217 933.017700,695.343811 919.642334,705.996643 
	C913.812683,710.639771 907.813965,715.315125 903.597229,721.654358 
	C900.350708,726.535217 896.472473,730.819458 892.528503,735.138489 
	C885.033081,743.346497 878.975647,752.416382 877.871338,764.023560 
	C877.465454,768.290344 876.615601,772.496582 874.285156,776.385498 
	C869.431824,784.483948 862.878662,790.339905 854.358948,794.522522 
	C844.507996,799.358704 834.664062,804.560608 825.669739,810.673401 
	C810.647278,820.882996 795.375122,830.641357 779.840881,840.008362 
	C774.817505,843.037476 772.648621,847.111877 772.931274,852.807739 
	C773.286255,859.961365 771.561646,866.654663 768.476685,873.092041 
	C764.865845,880.626709 762.080994,888.384583 761.205139,896.840454 
	C760.678711,901.922852 759.723816,907.232239 756.097839,911.239685 
	C749.417114,918.623474 741.220459,923.851990 732.108826,927.873169 
	C722.751953,932.002686 713.062195,934.715881 703.085571,936.885132 
	C692.362549,939.216736 688.100525,944.612366 686.582214,955.481506 
	C685.348511,964.313171 688.968872,972.958496 687.533142,981.828796 
	C687.335144,983.052063 688.472290,984.646484 689.302063,985.855774 
	C694.269897,993.095276 693.858521,1000.601257 690.411621,1008.186218 
	C688.759888,1011.820923 686.766357,1015.302979 684.866272,1018.821045 
	C683.799805,1020.795715 683.056763,1022.766602 684.000000,1025.000000 
M621.392761,829.790894 
	C618.882385,828.012695 618.108215,824.403137 614.667480,823.554749 
	C613.264160,823.208740 612.064941,822.960388 611.165344,824.374451 
	C610.363525,825.634827 610.189392,827.204712 611.338623,828.019470 
	C614.034912,829.931030 617.333313,830.739624 620.130188,832.673584 
	C621.488281,833.612671 621.837585,831.308472 622.351746,829.434387 
	C621.925049,825.624695 629.223450,826.571533 627.558777,821.451965 
	C622.588623,822.781311 622.356995,826.443115 621.392761,829.790894 
M434.700012,643.743225 
	C455.026825,657.724548 476.381897,669.828247 498.687561,680.439758 
	C507.610352,684.684570 514.776062,685.774719 524.255188,681.163818 
	C553.103577,667.131287 580.626587,651.016541 606.026672,631.534424 
	C625.148560,616.867737 642.812500,600.472900 658.650208,582.147827 
	C670.205200,568.778198 681.040100,554.873657 690.343872,539.917542 
	C716.692322,497.561829 732.566528,451.435394 739.860413,402.087402 
	C743.843628,375.138397 746.055420,348.070343 747.372192,320.946198 
	C748.145020,305.027130 749.346436,289.057129 748.623657,273.071259 
	C748.541016,271.243805 748.454895,269.375824 748.724243,267.579681 
	C750.663574,254.647934 749.159241,241.647461 749.590759,228.688217 
	C749.698425,225.455048 748.015015,223.847427 744.848389,223.417526 
	C740.585999,222.838837 736.347351,222.083893 732.100464,221.392899 
	C713.544617,218.373810 699.170715,209.293961 690.612976,192.189545 
	C683.374329,177.721573 681.944458,162.008453 681.696167,146.160858 
	C681.630676,141.980209 680.585022,139.725067 675.985779,139.226547 
	C666.772522,138.227936 657.643677,136.425766 648.425110,135.505386 
	C632.923279,133.957718 617.401184,132.554047 601.888794,131.131348 
	C579.545593,129.082153 557.153076,128.353867 534.780090,127.574898 
	C509.338715,126.689095 483.851105,127.309738 458.403778,128.441727 
	C446.806793,128.957596 435.206421,129.616821 423.643188,130.621063 
	C407.462341,132.026337 391.307007,133.742279 375.156097,135.468735 
	C366.584534,136.384995 358.037567,137.547180 349.495209,138.713440 
	C345.929169,139.200317 343.500793,140.723923 343.056183,144.956863 
	C342.122406,153.846909 342.035461,162.806870 340.412903,171.646317 
	C336.943909,190.544525 328.766479,206.086838 310.914459,215.254684 
	C302.495209,219.578354 293.624969,221.853073 284.221375,222.473343 
	C275.084778,223.076004 274.385040,224.005417 275.319092,232.756546 
	C275.389557,233.416824 275.367371,234.088318 275.367645,234.754593 
	C275.375397,253.034851 276.483459,271.273163 277.214050,289.529510 
	C277.917816,307.114838 278.449097,324.706421 279.220825,342.294098 
	C279.853638,356.716095 280.774170,371.071838 282.257629,385.434021 
	C284.134949,403.609467 287.326141,421.548218 291.833984,439.181732 
	C299.254120,468.207550 309.341705,496.254852 323.828094,522.677185 
	C336.276184,545.381958 350.775970,566.629028 368.201019,585.656006 
	C387.994202,607.268860 409.533661,627.099548 434.700012,643.743225 
M729.729736,654.227356 
	C733.859131,650.112305 738.024658,646.032471 742.099548,641.864197 
	C743.657532,640.270386 745.149475,639.825195 747.412109,640.519165 
	C754.732422,642.764221 762.170349,643.564819 769.899170,642.710083 
	C791.987427,640.267456 808.801819,629.339966 821.344421,611.400513 
	C824.204895,607.309326 823.454651,605.723694 818.576050,604.403320 
	C805.303894,600.811340 792.329651,601.890869 779.470215,606.632812 
	C773.649048,608.779358 768.689087,612.676758 762.695129,614.945496 
	C762.384094,613.138062 762.924194,612.153076 763.520508,611.136841 
	C768.230774,603.111023 773.317505,595.271790 777.482605,586.970764 
	C781.002380,579.955627 785.516602,575.993958 793.704895,577.584290 
	C794.799133,577.796814 796.036194,577.533264 797.162109,577.285522 
	C822.373718,571.736511 839.066162,556.114014 849.271423,532.955505 
	C850.359863,530.485474 851.597473,527.785706 850.214478,524.441345 
	C829.633057,525.357605 811.547485,531.898132 796.975403,547.301697 
	C796.714417,545.435608 796.664795,544.086121 797.028931,542.859314 
	C799.343933,535.058899 801.933289,527.334473 804.036682,519.479065 
	C804.883728,516.315674 806.391418,514.704468 809.537231,514.050537 
	C822.549500,511.345612 833.274841,504.671112 841.973022,494.732910 
	C852.905396,482.241882 859.425293,467.836395 860.641907,451.139771 
	C860.937195,447.087555 859.614441,446.186523 855.737549,447.328979 
	C846.095642,450.170319 837.797852,455.067963 830.795715,462.272552 
	C825.184204,468.046204 819.297180,473.554871 813.922607,481.375397 
	C813.922607,476.844513 813.689514,473.890381 813.967041,470.985077 
	C814.738647,462.908661 815.978943,454.869110 816.502686,446.780609 
	C816.727966,443.300201 817.704712,441.522247 821.054565,440.196686 
	C847.856873,429.590881 862.095215,400.207855 859.643677,373.882385 
	C859.059509,367.610107 858.048645,367.287109 852.111816,369.926117 
	C839.840454,375.380951 831.791504,385.100220 824.928101,396.135223 
	C822.747375,399.641510 820.948730,403.515594 816.870300,406.675110 
	C816.643677,398.292114 816.073059,390.835175 814.329529,383.597534 
	C813.082397,378.420319 813.591919,373.572723 815.959839,369.093536 
	C821.814575,358.018097 823.808105,346.304230 822.604309,333.958954 
	C821.343140,321.025055 816.096863,309.642487 806.456787,301.216248 
	C794.597778,290.850525 794.703186,290.771790 788.908813,306.204895 
	C780.816650,327.758057 786.152771,348.022491 799.514160,366.351227 
	C802.983826,371.110779 807.706360,375.111481 808.199951,381.637970 
	C808.411743,384.438446 808.457886,387.243164 808.869568,390.064117 
	C809.918640,397.252686 810.389282,404.525665 811.091370,411.764862 
	C807.823792,407.625305 805.729614,403.168030 803.383850,398.847412 
	C796.418945,386.019073 785.716187,377.413239 772.363403,371.957458 
	C768.914185,370.548157 766.407593,371.342987 766.337708,375.705597 
	C766.260681,380.509491 765.812073,385.359070 767.074829,390.064575 
	C773.242249,413.047028 786.538696,430.209473 808.491211,440.094025 
	C811.213562,441.319794 812.183960,442.416016 811.608337,445.618713 
	C810.172852,453.605103 809.609741,461.750519 808.118408,469.723999 
	C806.927368,476.091248 806.851196,482.694550 804.420349,489.867432 
	C802.797974,483.447449 801.893799,477.883789 799.605774,472.728058 
	C794.156738,460.449371 786.057556,450.709229 773.377380,445.374390 
	C769.291260,443.655273 766.709351,444.706207 766.545471,448.673035 
	C766.299011,454.638367 765.661499,460.686859 766.909058,466.600464 
	C770.831055,485.190735 779.486572,500.775513 795.927002,511.246368 
	C798.594543,512.945312 799.260559,515.162720 798.321777,518.084595 
	C797.256531,521.399780 796.431824,524.798157 795.246826,528.067688 
	C792.227112,536.399841 790.554138,545.273987 785.352600,553.780945 
	C784.328674,547.841614 783.774841,542.783630 782.553589,537.892334 
	C778.934998,523.399902 772.549805,510.781281 758.347412,503.688965 
	C754.834656,501.934814 752.573120,502.575775 751.628113,506.453278 
	C749.792053,513.987488 749.749634,521.678894 750.871338,529.245728 
	C753.427063,546.486511 761.519043,560.868530 774.574036,572.397949 
	C777.294434,574.800476 777.746033,576.980103 775.670410,580.119080 
	C770.722473,587.602051 765.998352,595.234802 761.265808,602.857910 
	C758.249084,607.717102 755.470520,612.732056 750.882812,618.213074 
	C752.133362,610.033936 751.968689,603.198364 751.497803,596.459290 
	C750.622498,583.932251 745.959656,572.962158 736.213684,564.516602 
	C734.021423,562.616882 732.262512,562.087341 730.626465,564.997559 
	C726.585815,572.185608 723.845520,579.761047 723.363281,588.088257 
	C722.427429,604.249084 726.371338,619.062683 735.525574,632.420227 
	C737.351624,635.084900 737.231995,637.025513 734.848389,639.323669 
	C727.652100,646.262207 720.830627,653.600403 713.463196,660.346069 
	C709.817017,663.684570 706.203430,667.395020 701.364136,669.339539 
	C700.641296,667.777588 701.551636,667.015564 701.955322,666.203918 
	C710.560059,648.903320 712.026001,631.377930 703.756653,613.506592 
	C702.307312,610.374390 701.422119,605.919983 697.916687,605.406555 
	C694.057678,604.841309 691.811279,608.964111 689.791443,611.907593 
	C676.252502,631.637390 674.587097,652.545837 684.122192,674.375305 
	C686.815002,680.540161 686.961304,680.426758 680.822632,683.585327 
	C675.651733,686.245850 670.562256,689.064819 665.389771,691.722290 
	C659.416443,694.791199 653.391663,697.759949 646.885132,701.025146 
	C647.151367,697.935242 648.471680,696.504517 649.723633,694.966248 
	C661.768127,680.167114 664.859497,663.183716 661.620056,644.788513 
	C660.820679,640.249451 658.870911,639.420654 654.968201,641.716370 
	C650.085876,644.588562 645.531433,647.996033 641.917236,652.410706 
	C629.124573,668.036926 624.638733,685.841309 628.612793,705.623169 
	C629.272644,708.908081 627.983337,709.781433 625.393555,710.407959 
	C620.225342,711.658508 615.127502,713.286438 609.902466,714.193726 
	C603.762024,715.259888 597.918213,717.892517 591.108459,717.979614 
	C593.110718,713.657776 596.741577,711.383850 599.462463,708.351990 
	C606.700317,700.286743 612.127930,691.252563 614.324341,680.546875 
	C614.912598,677.679993 615.573303,674.326355 612.910522,672.110413 
	C610.618103,670.202698 608.085632,671.959412 605.850159,672.843628 
	C584.812439,681.164856 570.078552,695.294312 564.133240,717.755676 
	C562.941833,722.257019 563.513367,726.117004 566.157349,729.524292 
	C573.642090,739.169556 581.857117,748.096313 592.994751,753.709412 
	C608.513489,761.530518 624.475525,762.121094 640.751404,756.398010 
	C644.002319,755.254883 645.506470,753.288940 642.826599,750.038391 
	C634.653992,740.125610 625.010986,732.224915 612.727356,727.907532 
	C609.737671,726.856689 606.753418,725.790100 602.349854,724.228271 
	C612.637329,720.382446 621.764954,718.087646 630.879333,715.778687 
	C632.709045,715.315125 633.895630,716.870239 635.129517,717.982910 
	C651.260925,732.529175 669.890442,739.433899 691.757202,736.630493 
	C698.600220,735.753174 705.042175,733.625000 711.191101,730.655090 
	C714.694031,728.963074 716.187805,726.722839 712.926575,722.900452 
	C704.915283,713.510498 694.505554,708.414062 682.892456,705.476868 
	C676.705322,703.912109 670.346863,703.025024 664.007202,701.820984 
	C664.214417,701.209778 664.224182,700.756042 664.430237,700.634338 
	C672.579651,695.817383 680.736694,691.013306 688.921692,686.257202 
	C690.296875,685.458069 691.804382,685.480652 693.195129,686.346252 
	C704.195618,693.192627 716.268555,695.315674 729.026733,694.659180 
	C747.010376,693.733765 762.733643,687.698914 775.326660,674.468933 
	C779.467163,670.119080 779.357239,668.757996 773.993469,666.030090 
	C760.213074,659.021545 745.805298,656.726013 730.618042,660.677612 
	C727.702698,661.436157 724.882874,662.928101 721.218872,662.638184 
	C723.361633,658.969543 726.192810,656.745361 729.729736,654.227356 
M204.175232,530.410278 
	C194.148865,526.979614 184.331451,521.872437 173.370514,525.899658 
	C173.273895,526.725342 173.184677,526.923706 173.245697,527.048584 
	C175.143509,530.932617 176.843460,534.932312 179.001022,538.667419 
	C192.056610,561.268372 209.501633,577.200684 237.589157,576.625793 
	C240.745438,576.561279 242.872131,577.854736 244.440582,580.626892 
	C247.303955,585.687500 250.689697,590.469238 253.320328,595.640625 
	C256.575928,602.040405 261.297943,607.689697 264.031586,615.908630 
	C257.378967,612.522278 252.177612,609.020996 246.369095,606.685913 
	C232.716949,601.197876 218.878250,600.997742 204.813904,604.480469 
	C201.741333,605.241394 199.871231,606.714050 202.357391,610.086792 
	C208.002518,617.744934 214.212265,624.815613 222.184219,630.193420 
	C239.518631,641.887024 258.175690,645.882263 278.568848,640.103088 
	C280.528442,639.547852 282.644318,639.113892 284.319336,640.508911 
	C291.810028,646.747375 297.637207,654.530090 304.184387,662.228577 
	C283.261200,655.750610 263.870880,657.837341 245.722031,669.972717 
	C247.348251,673.810303 249.858154,676.116333 252.483337,678.063416 
	C276.907562,696.179321 302.835724,701.204224 330.782227,686.469543 
	C333.212067,685.188354 334.968079,685.406372 337.185333,686.752014 
	C342.866882,690.200073 348.805725,693.235657 354.388062,696.830078 
	C356.580048,698.241455 359.601379,698.863037 361.045227,701.944336 
	C357.243835,702.459961 353.809631,702.885803 350.388153,703.396790 
	C335.268829,705.654480 322.081573,711.623535 311.823425,723.335754 
	C309.205078,726.325256 309.309570,728.683594 312.968964,730.414307 
	C323.024658,735.170044 333.651581,738.259094 344.757904,737.456177 
	C359.229370,736.409973 373.588501,732.940735 384.100922,722.543640 
	C391.668243,715.059265 398.759613,716.093384 406.864868,719.071655 
	C411.360077,720.723328 416.425323,720.800537 421.289886,723.939880 
	C418.152863,725.328186 415.756561,726.415649 413.339172,727.454041 
	C402.094025,732.284424 391.316101,737.790039 383.498138,747.684387 
	C378.990143,753.389648 379.533691,755.713501 386.289642,757.370361 
	C394.310364,759.337341 402.278961,760.828552 410.788300,759.779785 
	C431.838379,757.185303 447.808289,746.910339 459.464691,729.516541 
	C462.023254,725.698608 462.066162,721.470276 460.973206,717.037476 
	C458.855255,708.447510 454.683960,700.894104 449.280548,694.076904 
	C440.571930,683.089661 429.236206,675.695007 415.940094,671.412537 
	C411.648712,670.030273 409.974945,671.838013 410.660950,676.212952 
	C413.045471,691.419556 419.903778,704.069458 431.872467,713.889343 
	C433.008057,714.821167 434.752167,715.717468 433.960541,718.303162 
	C422.006348,715.492615 410.102478,712.737427 398.229126,709.856506 
	C396.390137,709.410217 395.601013,708.023438 396.330200,705.987061 
	C398.292786,700.506226 397.669708,694.789062 397.609436,689.156799 
	C397.394989,669.118469 388.224701,653.906311 372.005615,642.702637 
	C366.332703,638.783997 364.562225,639.754150 363.262482,646.628174 
	C362.829559,648.917908 362.479462,651.173157 362.334808,653.513123 
	C361.378479,668.985291 366.077087,682.674438 375.091553,695.063965 
	C375.947662,696.240601 377.038483,697.411621 375.849030,698.968872 
	C375.444336,699.023560 375.057220,699.205444 374.801025,699.091858 
	C363.227997,693.963684 352.078186,688.020325 341.151978,681.640320 
	C338.426819,680.049011 339.365875,678.110657 340.407684,676.110901 
	C346.419037,664.572021 348.624908,652.392273 346.606873,639.495728 
	C344.761536,627.702698 340.060822,617.212280 331.989105,608.384705 
	C328.322174,604.374390 325.668549,604.513306 323.331696,608.850098 
	C314.678131,624.909363 312.409790,641.437378 320.308533,658.543945 
	C321.937897,662.072693 323.547913,665.610413 325.188568,669.191406 
	C323.454803,669.888733 322.399170,669.323975 321.577118,668.560791 
	C310.857300,658.607971 300.171234,648.618835 289.481506,638.633667 
	C287.431335,636.718628 287.326202,634.723450 289.065308,632.471375 
	C291.728058,629.023315 293.547882,625.072876 295.292969,621.120667 
	C303.254150,603.090454 304.900085,584.943054 295.806915,566.769226 
	C293.256714,561.672424 291.574890,561.420898 287.751099,565.587402 
	C277.927643,576.291382 272.397278,588.593506 273.199921,603.538391 
	C273.485901,608.863586 275.130310,613.903503 275.994110,619.093994 
	C275.566315,619.252441 275.138550,619.410828 274.710785,619.569275 
	C265.402527,604.902954 256.094269,590.236633 246.632660,575.328674 
	C254.815613,568.953247 260.876434,561.288879 265.708344,552.700134 
	C273.547363,538.766174 276.610138,523.909119 273.538544,508.030396 
	C272.278748,501.517883 270.807007,500.704376 265.459198,504.412537 
	C253.751923,512.530457 245.132843,522.898315 242.184799,537.349426 
	C241.140488,542.468506 240.484833,547.632874 239.568771,552.907104 
	C238.418579,551.379517 237.572220,549.825867 236.999252,548.177185 
	C233.617096,538.444946 230.484146,528.621033 226.869293,518.977173 
	C225.375793,514.992737 226.245560,512.944824 229.633896,510.370026 
	C249.737610,495.093262 261.307526,475.439148 259.609161,449.366699 
	C259.286346,444.410675 257.375763,443.089508 252.813614,444.819641 
	C251.117889,445.462708 249.554382,446.477448 247.973343,447.396301 
	C234.978134,454.948883 227.679794,466.686737 223.455948,480.711761 
	C222.884232,482.610138 222.934189,484.980743 220.347870,486.154816 
	C220.067337,485.294434 219.781174,484.713684 219.693634,484.104431 
	C217.904114,471.648224 216.390793,459.144348 214.219452,446.755646 
	C213.521210,442.771759 214.192825,440.828156 217.723434,438.788483 
	C231.901001,430.598175 243.951050,419.996002 252.589386,405.900940 
	C257.711517,397.543274 261.227905,388.636353 260.590179,378.571564 
	C260.137360,371.425293 257.803009,369.901947 251.391174,372.427216 
	C236.891739,378.137726 227.169083,388.962708 219.626053,402.111298 
	C218.298569,404.425293 217.552383,407.127441 215.227524,409.321289 
	C214.904312,408.236389 214.605759,407.757385 214.652802,407.315186 
	C215.668961,397.767639 216.606750,388.209015 217.844101,378.689484 
	C218.203125,375.927277 219.465500,373.369110 221.467834,371.158905 
	C231.520264,360.062866 238.460632,347.366211 240.165741,332.297913 
	C241.562393,319.955505 239.205444,308.242828 233.230927,297.281097 
	C231.308838,293.754547 229.195877,293.700012 226.025146,295.894836 
	C210.784241,306.444824 203.744507,321.487671 202.479431,339.412140 
	C201.749069,349.760590 205.027542,359.405670 209.888260,368.500549 
	C211.381744,371.295013 212.811523,374.092010 212.257706,377.486755 
	C211.510681,382.065887 211.178238,386.724182 210.222824,391.254669 
	C209.195999,396.123657 209.372070,401.281372 206.988495,406.931366 
	C204.515945,402.544006 202.601212,398.958954 200.514038,395.477264 
	C193.663376,384.049530 184.181229,375.384857 172.348343,369.364685 
	C167.408020,366.851166 165.693237,367.973206 165.422592,373.545227 
	C165.016525,381.905365 166.046341,390.154175 168.470337,398.135956 
	C174.236877,417.124298 185.753052,431.342010 204.159622,439.340363 
	C207.655045,440.859253 208.850479,443.267700 209.189285,446.434662 
	C210.034943,454.339417 210.867737,462.257202 211.266083,470.191772 
	C211.402512,472.909576 213.293579,475.598083 211.402756,478.960846 
	C206.728867,475.754974 203.568695,471.188263 200.260590,467.090027 
	C192.531860,457.515350 182.750198,451.416260 171.253098,447.753601 
	C165.210632,445.828583 163.464737,447.636505 164.711670,454.024780 
	C166.019958,460.727539 167.654800,467.360565 170.564713,473.534515 
	C179.889389,493.318512 193.192688,508.767609 215.787003,513.545898 
	C218.491882,514.117920 219.800430,515.468262 220.556366,517.901794 
	C222.821472,525.193481 225.275482,532.428955 227.405106,539.759155 
	C228.289856,542.804504 229.842636,545.761719 229.759964,550.346313 
	C222.224625,541.652405 214.220154,535.268799 204.175232,530.410278 
M599.612610,84.575073 
	C599.602356,82.575470 599.664429,80.572174 599.562683,78.577240 
	C599.448364,76.335686 599.132874,73.992622 596.173401,73.970398 
	C593.303772,73.948868 592.609741,76.208267 592.548706,78.458595 
	C592.449524,82.115608 592.634460,85.781639 592.742676,89.442581 
	C592.845215,92.911049 591.524109,94.577446 587.735535,94.468132 
	C584.312500,94.369377 582.382446,93.541016 582.538269,89.676804 
	C582.692322,85.856171 582.597595,82.010841 582.344604,78.194084 
	C582.198792,75.993019 581.529663,73.664787 578.617004,73.791771 
	C575.620972,73.922394 575.496033,76.340866 575.436829,78.549423 
	C575.329529,82.545799 575.448425,86.551437 575.237732,90.540787 
	C575.085449,93.423714 573.175049,94.384514 570.423340,94.367889 
	C567.596680,94.350807 566.613220,92.947029 566.625793,90.335083 
	C566.644287,86.503372 566.682190,82.664734 566.477661,78.841576 
	C566.351013,76.473610 565.847290,73.892212 562.733398,73.846481 
	C559.333801,73.796555 559.453674,76.517242 559.399475,78.868111 
	C559.318909,82.365593 559.536926,85.884346 559.226501,89.358170 
	C558.906250,92.940857 556.587158,94.454262 553.003479,94.333229 
	C549.101562,94.201447 549.657104,91.396469 549.619202,88.959427 
	C549.564697,85.460823 549.630615,81.960388 549.582397,78.461601 
	C549.548950,76.041916 548.776855,74.110580 545.884705,74.195389 
	C543.005676,74.279800 542.382690,76.260193 542.380493,78.665398 
	C542.377136,82.331619 542.246582,86.003571 542.410156,89.662361 
	C542.559021,92.991890 541.429382,94.557701 537.861572,94.477745 
	C534.520935,94.402863 532.440430,93.660606 532.586792,89.730217 
	C532.766541,84.904602 532.211121,80.020920 532.754944,75.251427 
	C533.065979,72.523056 528.933228,71.061356 531.378662,68.088287 
	C532.675049,66.512146 531.843445,64.883537 530.573059,63.632103 
	C529.106323,62.187168 527.236633,61.731926 525.611694,63.093014 
	C524.076904,64.378563 523.011108,64.470840 521.358643,63.274567 
	C519.311829,61.792812 517.253479,62.356239 515.574707,64.220001 
	C514.160645,65.789917 514.603210,67.363159 515.805115,68.703094 
	C517.486511,70.577682 519.426880,70.928856 521.498718,69.160942 
	C523.677795,67.301506 524.973328,68.045631 525.854797,70.983459 
	C522.619080,71.490440 519.556946,71.930443 516.509399,72.455650 
	C509.267365,73.703751 503.365356,80.684883 503.387482,87.923805 
	C503.410248,95.377342 507.808258,100.102768 515.745422,101.742805 
	C519.052551,102.426132 522.335754,102.432892 525.651550,102.638794 
	C539.013306,103.468521 552.321289,101.732536 565.731567,102.288689 
	C579.276733,102.850441 593.024597,104.203453 606.537659,101.137993 
	C607.578918,100.901749 608.470154,101.075165 609.409729,101.540138 
	C612.887512,103.261238 616.625183,102.888458 620.198608,102.308899 
	C628.835571,100.908112 632.617615,96.465782 632.636475,88.288338 
	C632.644165,84.955383 632.625427,81.622368 632.632568,78.289406 
	C632.637939,75.761536 632.282898,73.451027 629.008118,73.484673 
	C625.778687,73.517845 625.397156,75.797546 625.389709,78.336609 
	C625.377869,82.335289 625.480774,86.344116 625.227173,90.329056 
	C625.034729,93.353134 623.090332,94.480927 620.059448,94.352196 
	C616.968750,94.220940 616.651489,92.312561 616.653625,89.965645 
	C616.656677,86.632690 616.748474,83.295410 616.608398,79.968140 
	C616.497620,77.337982 617.637390,73.657684 613.212097,73.544785 
	C608.917053,73.435219 609.482971,76.939232 609.404114,79.710014 
	C609.314026,82.874039 609.516418,86.055664 609.264099,89.203369 
	C608.973267,92.831619 606.625122,94.309212 603.112610,94.309341 
	C599.211731,94.309494 599.714111,91.478874 599.618225,89.026672 
	C599.572693,87.861923 599.611328,86.693901 599.612610,84.575073 
M498.007202,937.843750 
	C492.616486,941.674866 486.429108,940.601807 480.577637,940.166504 
	C470.460999,939.413940 468.773376,939.957764 464.385620,949.090637 
	C460.864471,956.419617 455.601929,961.960510 448.193970,965.271973 
	C443.270874,967.472778 438.177490,969.292480 433.074493,971.316833 
	C434.321533,973.222473 435.893158,973.552063 437.620972,973.627197 
	C452.362366,974.268250 464.582733,970.041382 471.508301,955.864563 
	C473.026489,952.756714 474.664490,951.601135 478.488495,952.307922 
	C485.357086,953.577454 492.042206,952.443604 497.924347,948.077332 
	C499.296021,947.059204 500.567474,945.431580 502.622253,945.697632 
	C504.343933,947.761353 502.232452,950.799072 504.827759,952.978516 
	C506.611450,952.319336 508.572693,951.314941 510.795410,951.931396 
	C514.884094,953.065308 518.953491,952.566650 523.122925,952.022034 
	C530.308044,951.083496 537.543091,949.498840 544.783264,952.188171 
	C547.281433,953.116089 550.014648,952.822327 552.654114,952.119873 
	C564.067261,949.082764 571.126465,939.567505 580.327087,933.260986 
	C584.080017,930.688538 583.488708,921.231262 580.662720,919.086060 
	C574.912964,914.721130 567.634705,917.997070 566.175842,925.127197 
	C565.348206,929.172485 566.503784,934.016724 562.395386,937.079163 
	C556.876221,941.193176 550.781250,942.221802 544.057922,940.799683 
	C544.008789,936.983032 547.199890,935.212585 548.477600,932.397766 
	C552.107971,924.399475 547.904907,917.297729 539.235596,917.840576 
	C532.049011,918.290527 525.350769,920.408569 519.550354,925.252686 
	C516.205505,928.046082 513.329651,931.385498 510.020447,934.361450 
	C506.675964,929.077148 505.603577,929.030884 502.262146,933.294739 
	C501.140472,934.726013 499.820343,936.001709 498.007202,937.843750 
M411.947693,894.406067 
	C414.486084,889.464844 416.694733,884.479553 414.933136,878.692749 
	C414.718384,877.987244 414.844177,876.785034 415.313599,876.326660 
	C418.877197,872.847107 422.565857,869.495667 426.189056,866.128845 
	C427.595428,867.096436 427.286743,868.529297 427.333374,869.811218 
	C427.480682,873.859558 428.618927,877.673279 430.158630,881.356873 
	C433.307404,888.889709 439.033386,892.120178 446.911621,890.391602 
	C452.579987,889.147949 458.224396,887.568481 463.409576,884.837585 
	C475.227570,878.613159 487.322632,873.328491 500.980652,872.919922 
	C502.773254,872.866333 503.730408,871.672180 503.949707,870.068970 
	C504.227173,868.040894 502.856171,866.874023 501.118591,866.560425 
	C496.397583,865.708557 491.627686,865.131714 486.893616,864.346741 
	C479.955994,863.196289 472.856323,862.757751 465.931824,860.171387 
	C466.358276,858.980225 466.473236,858.115906 466.921661,857.490662 
	C471.366516,851.293152 471.259247,844.495911 469.876434,837.415771 
	C468.479736,830.264587 467.338379,823.063660 466.072144,815.886780 
	C465.877106,814.781494 465.156250,813.244324 466.753662,812.968323 
	C469.740234,812.452576 468.480957,810.374268 468.125305,809.171387 
	C467.281708,806.318237 466.047485,803.566040 464.798065,800.852661 
	C463.992493,799.103149 463.192047,796.505432 460.756531,797.276062 
	C458.054474,798.131042 458.228271,800.773071 458.695190,803.222778 
	C461.206390,816.397461 463.713470,829.573120 466.132965,842.764832 
	C466.985046,847.410400 465.826752,851.202942 461.429413,853.851379 
	C457.694641,856.100708 453.827332,857.898865 449.725647,859.329712 
	C444.160767,861.270935 442.005676,864.325378 442.334534,869.695618 
	C452.842926,869.743347 463.534668,868.918091 473.643188,872.846680 
	C473.310089,874.487549 472.647095,874.922302 471.845978,875.262207 
	C464.301697,878.463501 456.352448,880.290344 448.294983,881.257751 
	C439.886627,882.267273 435.458649,879.148315 432.963806,871.081665 
	C431.547943,866.503723 430.646881,861.757141 429.693298,857.050171 
	C429.295929,855.088562 429.282410,853.078003 426.872162,852.079224 
	C423.867188,854.185913 423.208618,857.899292 421.086212,860.593140 
	C417.513916,865.127136 415.675232,865.286987 411.820740,861.006836 
	C411.077362,860.181396 410.447388,859.011292 408.941223,859.414856 
	C407.169708,860.412781 407.503693,862.183594 407.364899,863.810852 
	C407.017090,867.889526 407.804382,871.778687 409.421356,875.484253 
	C412.145569,881.727112 411.512939,887.085144 405.670380,891.280701 
	C404.326599,892.245728 403.152191,893.443604 401.833069,894.446472 
	C388.969788,904.226135 373.941284,909.821960 359.440460,916.459473 
	C354.468658,918.735229 349.056396,920.261475 344.363007,923.675659 
	C345.906342,925.048645 347.123077,924.857361 348.221558,924.652161 
	C359.170898,922.606750 370.182037,920.597473 380.330597,915.827942 
	C391.749115,910.461548 403.491974,905.437744 411.947693,894.406067 
M698.429260,102.633949 
	C700.761780,102.620239 703.101135,102.715370 705.425476,102.570305 
	C710.361877,102.262230 714.405884,100.204437 717.164795,96.002686 
	C720.699890,90.618759 720.373108,83.444817 716.462402,78.718475 
	C712.233093,73.607147 704.502197,71.627151 698.780762,74.197823 
	C693.018188,76.787003 688.758850,83.830345 690.109924,89.513756 
	C690.915588,92.903122 689.602356,94.502144 685.995056,94.402534 
	C680.833740,94.260025 675.661438,94.205467 670.502808,94.379936 
	C666.755066,94.506699 665.501709,92.862968 665.633484,89.299263 
	C665.799622,84.807556 665.626648,80.303886 665.632446,75.805420 
	C665.635315,73.583542 665.051636,71.658348 662.510437,71.500351 
	C656.336060,71.116478 650.160889,71.043152 644.525513,74.244514 
	C638.727478,77.538216 635.422241,84.328377 636.459290,90.705467 
	C637.452881,96.815575 641.456238,100.327950 648.893555,101.705963 
	C651.570251,102.201912 654.222656,102.829056 657.150879,103.452721 
	C655.949158,106.925743 653.767944,108.510246 650.934631,109.312958 
	C648.774536,109.924950 646.289246,110.452126 647.225586,113.428734 
	C648.122070,116.278900 650.804382,116.179947 653.118286,115.639145 
	C657.883484,114.525406 661.722351,111.985397 663.717651,107.331543 
	C665.315186,103.605438 667.968506,102.431618 671.960083,102.554825 
	C680.449158,102.816872 688.952087,102.632362 698.429260,102.633949 
M621.480957,880.900879 
	C627.698608,877.863953 627.698608,877.863953 630.456238,883.993774 
	C633.778564,891.378784 639.303101,892.595825 645.597656,887.389832 
	C647.842163,885.533569 649.328552,882.706848 652.517090,881.715332 
	C653.027710,882.582458 653.504578,883.256226 653.845764,883.992859 
	C656.728149,890.216248 660.180664,891.833130 666.544739,889.905212 
	C678.636780,886.242188 682.440979,874.910400 674.985291,864.193665 
	C672.762451,860.998657 670.910706,857.909180 670.395264,853.903931 
	C669.994202,850.787170 668.138733,848.128906 665.135681,846.266235 
	C662.397400,849.238586 663.180786,852.319824 664.390015,855.220581 
	C666.754883,860.893677 669.444092,866.430908 671.840637,872.091492 
	C673.836304,876.805054 672.811401,878.584534 667.452820,880.373230 
	C661.273743,882.435791 658.163269,881.411316 656.916748,876.910217 
	C656.368042,874.929016 657.378723,871.902710 654.764343,871.278809 
	C651.989075,870.616577 651.499023,874.054749 649.788452,875.444092 
	C649.420410,875.743103 649.289124,876.316589 648.956360,876.678772 
	C646.317688,879.551147 643.372314,882.194031 639.207520,881.780212 
	C634.764648,881.338806 632.840332,877.919617 631.830261,874.014404 
	C630.833984,870.162598 628.782349,869.879944 625.510132,871.487732 
	C608.555359,879.818359 590.855652,884.732666 571.749390,882.358276 
	C561.786682,881.120056 553.327026,877.641846 550.655579,866.545898 
	C550.472900,865.787170 550.283386,864.893311 549.182739,864.886169 
	C547.199524,869.064514 546.871033,872.034241 547.951355,875.836365 
	C551.295898,887.607971 559.082825,890.378723 570.734741,891.556274 
	C588.444946,893.346191 605.076599,889.285706 621.480957,880.900879 
M326.396088,83.868874 
	C326.426788,91.043633 326.903259,91.532593 333.977844,91.639969 
	C334.976440,91.655121 335.977051,91.706413 336.973480,91.664001 
	C340.403473,91.518005 341.989960,93.677292 342.006287,96.571823 
	C342.023376,99.600235 340.120422,101.371925 336.824280,101.338684 
	C331.331940,101.283287 325.835266,101.452553 320.346649,101.301224 
	C314.902039,101.151108 311.235474,95.558167 313.104889,90.352379 
	C313.598480,88.977875 314.455688,87.660164 315.408264,86.539299 
	C317.529358,84.043457 317.599304,81.366150 315.137024,79.537674 
	C312.585297,77.642792 310.842987,80.308922 309.395508,81.939590 
	C301.552216,90.775452 304.963135,104.488319 316.011292,108.564468 
	C318.127228,109.345131 319.393219,109.833298 318.714691,112.693428 
	C317.740631,116.799316 320.496277,117.943207 324.037689,117.682793 
	C325.174652,117.599174 326.319244,116.902336 327.409088,117.009056 
	C335.371674,117.788826 335.367554,117.830887 336.199921,110.227341 
	C345.550018,107.545158 349.740570,103.157860 349.608612,95.912277 
	C349.432343,86.229507 342.855591,83.987640 334.673431,84.001801 
	C334.986420,79.801926 337.681396,79.081985 340.532745,78.565781 
	C343.156982,78.090691 345.134247,76.535324 344.713165,73.914124 
	C344.278076,71.205772 341.411224,71.135651 339.390259,71.539177 
	C332.527679,72.909454 329.106598,73.112846 326.396088,83.868874 
M383.720154,84.635353 
	C385.384338,84.638023 387.048615,84.630440 388.712677,84.645546 
	C392.002228,84.675400 394.270203,85.996857 394.229248,89.594795 
	C394.187988,93.222000 391.826874,94.391129 388.568451,94.377136 
	C385.240021,94.362839 381.911438,94.390793 378.583130,94.368912 
	C367.103455,94.293434 368.820099,95.123421 368.639191,84.484009 
	C368.630707,83.984833 368.622070,83.485657 368.612976,82.986488 
	C368.563202,80.258827 367.399994,78.470924 364.471191,78.461823 
	C361.440796,78.452408 360.487610,80.500534 360.416199,83.090446 
	C360.319916,86.582985 360.510101,90.087173 360.322510,93.572639 
	C359.973328,100.060669 362.030884,106.956825 357.120941,112.727463 
	C356.315186,113.674492 356.479919,114.993187 357.630249,115.813583 
	C358.865875,116.694778 360.220490,116.504936 361.379425,115.710976 
	C364.483063,113.584679 366.985718,110.848251 367.813263,107.121658 
	C368.621399,103.482384 370.665070,102.572052 374.179443,102.554443 
	C380.132233,102.524620 386.156921,103.396843 392.041443,101.631813 
	C398.488495,99.698059 402.001465,94.897614 401.612854,88.378372 
	C401.271484,82.651512 397.048065,78.425354 390.644745,77.366745 
	C389.591400,77.192612 388.238770,77.649712 387.520538,75.655487 
	C389.465363,73.954857 391.519409,72.112923 393.625336,70.332344 
	C395.194305,69.005768 396.138367,67.595009 394.593933,65.671524 
	C393.117035,63.832142 391.364838,63.367439 389.390167,64.876907 
	C385.830383,67.598038 382.363098,70.444115 378.742706,73.080803 
	C375.519135,75.428467 376.091095,78.694427 376.706757,81.709862 
	C377.364166,84.929993 380.347717,84.538048 383.720154,84.635353 
M362.446350,842.739197 
	C361.837677,840.456238 360.536438,838.639038 358.069946,838.627991 
	C355.039307,838.614380 355.388947,841.567688 354.631958,843.414795 
	C353.982727,844.999023 354.428406,847.405029 351.621582,847.060486 
	C349.869446,846.845398 347.901825,845.645813 346.799774,847.969177 
	C345.733185,850.217773 346.927765,852.199768 348.186523,853.978699 
	C352.925079,860.675659 352.860016,862.059692 347.315399,868.720581 
	C346.192688,870.069458 344.592804,871.339172 346.153900,873.537292 
	C351.773743,872.226074 350.935669,865.251404 355.419708,862.636536 
	C356.955292,865.325195 355.240692,867.108398 354.421448,868.934326 
	C351.871948,874.616943 350.508850,880.548584 350.390991,886.758362 
	C350.327637,890.096008 351.974609,892.406982 355.371857,892.358521 
	C365.095978,892.219543 373.729065,879.097656 368.944366,870.501526 
	C364.416718,862.367188 365.369049,855.838074 370.673401,848.984741 
	C372.632416,846.453613 373.422272,843.507568 371.578156,839.582275 
	C368.586182,844.738831 365.994843,849.317017 363.281036,853.821411 
	C362.331940,855.396729 361.065063,857.181763 358.947937,855.489868 
	C357.159241,854.060547 356.787506,852.195435 358.603363,850.341248 
	C360.511841,848.392456 361.673431,846.021362 362.446350,842.739197 
M422.215149,94.199593 
	C418.563110,94.273438 414.909271,94.300278 411.259674,94.438606 
	C409.045288,94.522545 406.685852,94.749825 406.551605,97.694351 
	C406.433350,100.287964 408.155518,101.494057 410.503845,102.048828 
	C414.118134,102.902679 417.785370,102.550583 421.427551,102.550316 
	C430.750885,102.549629 433.304016,99.732803 432.605408,90.447144 
	C431.929047,81.457764 425.563141,74.667152 416.962952,73.761124 
	C412.835022,73.326248 406.438965,76.156113 406.914276,78.359100 
	C408.014679,83.458977 412.099335,81.696556 415.385071,81.659828 
	C423.050140,81.574135 426.293030,86.722458 422.215149,94.199593 
M523.630310,884.594543 
	C524.437683,885.567871 525.392029,885.198425 525.355103,884.251221 
	C525.146912,878.915588 527.033691,873.764771 526.475647,868.387207 
	C525.074951,854.888733 523.679626,841.396179 521.768555,827.952698 
	C521.265137,824.410950 518.988342,820.210815 521.143799,817.272034 
	C523.619202,813.896851 522.483643,811.270264 521.703857,808.225037 
	C521.126526,805.970276 520.094910,803.938599 517.337769,804.481628 
	C514.617859,805.017334 514.229431,807.430603 514.535767,809.620422 
	C516.118347,820.934265 517.470886,832.268738 518.635132,843.635864 
	C520.015930,857.116333 521.830933,870.552246 523.630310,884.594543 
M494.146545,60.178268 
	C496.789185,57.749634 496.911591,55.328762 493.236969,54.296818 
	C490.295685,53.470787 487.047424,53.434578 483.954071,53.549625 
	C481.510254,53.640511 479.019989,55.120457 479.359955,57.764729 
	C479.660492,60.102779 481.980682,60.932438 484.462952,60.048534 
	C485.133972,59.809597 485.763184,60.043789 486.433472,61.046188 
	C483.688904,63.946953 484.428711,67.770226 484.410553,71.446609 
	C484.369507,79.756691 484.360565,88.067314 484.414642,96.377213 
	C484.427155,98.302063 484.105133,100.817375 486.883759,101.040733 
	C489.176147,101.224998 490.447052,99.325943 490.983551,97.332741 
	C491.450378,95.598465 491.582184,93.733673 491.595551,91.924583 
	C491.658325,83.448486 491.619110,74.971687 491.639435,66.495186 
	C491.644562,64.353516 491.369781,62.091167 494.146545,60.178268 
M472.384399,73.988731 
	C472.375732,80.302925 472.107513,86.630363 472.428711,92.927734 
	C472.775085,99.718506 471.990936,105.844429 464.872925,110.005974 
	C475.136353,110.521500 480.048004,106.335304 480.601288,97.471001 
	C480.683990,96.146385 480.635681,94.813171 480.636261,93.483932 
	C480.639618,85.674278 480.693634,77.864059 480.613403,70.055237 
	C480.582062,67.005196 481.320374,62.976467 476.765137,62.734081 
	C472.000763,62.480556 472.782135,66.606354 472.504364,69.626572 
	C472.398071,70.782494 472.421600,71.950348 472.384399,73.988731 
M444.223480,100.516487 
	C445.331238,106.158127 448.247192,110.249214 454.055176,111.732895 
	C455.340240,112.061165 456.792572,112.041138 457.654663,110.754684 
	C458.478333,109.525566 457.718201,108.387535 456.803894,107.718224 
	C451.493500,103.830757 450.717010,98.735619 452.302612,92.736198 
	C452.919861,90.400848 450.959259,89.019150 449.145752,88.259842 
	C447.109009,87.407036 446.088837,89.197517 445.504395,90.704079 
	C444.382294,93.596703 443.191589,96.542870 444.223480,100.516487 
M366.848755,820.440491 
	C362.941559,816.915649 359.599182,816.980896 357.261810,822.396362 
	C355.615875,821.515320 354.249359,820.919617 353.031921,820.101990 
	C350.915588,818.680542 349.071350,818.438538 347.492340,820.829041 
	C345.888672,823.256714 346.272614,825.324341 348.816803,826.685791 
	C350.790192,827.741638 353.138031,830.910034 355.120361,827.557495 
	C357.154755,824.116943 359.118896,824.778625 361.606720,826.314819 
	C363.317169,827.370972 364.987885,827.907166 366.579468,826.276123 
	C368.101410,824.716431 368.829468,822.950867 366.848755,820.440491 
M644.616028,917.633423 
	C645.890686,918.139832 647.443787,918.678223 648.261902,917.346130 
	C650.194031,914.200195 652.286621,914.548096 654.843323,916.437378 
	C655.799133,917.143799 657.260071,917.458008 657.953125,916.229858 
	C659.104065,914.190186 661.364746,911.844299 658.756958,909.629761 
	C656.715759,907.896362 653.874146,905.713318 651.543884,909.206604 
	C649.854675,911.738770 648.595398,910.865906 646.697021,909.713379 
	C643.580872,907.821655 640.917236,909.024170 640.581360,912.298096 
	C640.316284,914.880920 642.235840,916.080566 644.616028,917.633423 
M592.159119,851.328796 
	C593.630737,849.081604 595.414978,849.732178 597.344482,850.661316 
	C599.171204,851.541138 601.304810,853.378052 602.552124,849.996277 
	C603.163757,848.338379 605.259033,846.391418 602.421631,844.923767 
	C600.324524,843.839050 598.087585,840.624939 595.674133,844.093933 
	C593.551453,847.145081 591.519043,845.771118 589.297974,844.679565 
	C587.459106,843.775818 585.873535,843.650208 584.610046,845.668396 
	C583.450500,847.520508 582.956604,849.275391 584.634033,851.076721 
	C586.753418,853.352539 589.053101,853.839905 592.159119,851.328796 
M482.632507,890.578491 
	C482.707214,887.912048 482.191467,885.554016 479.233643,884.667480 
	C478.021423,884.304138 476.800598,884.626465 476.147949,885.712891 
	C474.733063,888.067993 475.315765,890.101257 477.403046,891.839233 
	C479.199860,893.335388 477.915161,894.846436 477.237885,896.289307 
	C476.328583,898.226501 475.156036,900.061035 474.438538,902.062256 
	C473.480438,904.734375 474.890747,906.352783 477.488861,906.498596 
	C480.726990,906.680298 483.908142,906.169800 486.659027,903.940308 
	C484.284210,900.765259 480.183838,903.910950 477.798767,900.801086 
	C479.684174,897.812073 482.979370,895.456665 482.632507,890.578491 
M490.696869,825.673523 
	C488.744141,823.481567 486.249542,824.060059 484.384094,825.228821 
	C482.243378,826.569946 482.206116,829.292175 482.680542,831.566406 
	C484.126740,838.499573 485.799774,845.385437 487.380219,852.290649 
	C487.634430,853.401367 487.720398,854.628967 489.507202,854.809570 
	C490.104309,849.810730 488.659515,845.032532 488.140411,840.199585 
	C487.635284,835.496521 484.673065,830.400635 490.956818,827.194824 
	C491.075562,827.134277 490.938446,826.572144 490.696869,825.673523 
M658.293030,58.810211 
	C655.488525,56.634129 652.696777,56.902866 650.205688,59.192348 
	C647.658142,61.533680 647.108337,64.966621 648.008789,67.854935 
	C648.930542,70.811325 652.304688,69.344017 654.644287,69.606644 
	C655.623230,69.716530 656.632874,69.632004 657.621826,69.552216 
	C658.850830,69.453064 660.032104,69.050812 660.071899,67.607109 
	C660.110168,66.218605 659.036255,65.720757 657.810730,65.406616 
	C656.234314,65.002510 654.054626,66.151207 653.207397,63.889153 
	C653.759949,60.615227 660.984009,65.876884 658.293030,58.810211 
M433.359131,916.442993 
	C435.255188,914.448608 438.085999,912.478577 434.586945,909.687378 
	C432.640930,908.135071 430.737946,905.699951 427.714722,906.904602 
	C425.731079,907.695068 424.521454,909.592041 424.797607,911.622498 
	C425.206421,914.628357 427.967407,915.574524 430.406921,916.546875 
	C431.113586,916.828552 431.995697,916.669983 433.359131,916.442993 
M436.190460,842.773560 
	C437.760223,845.827332 440.296967,847.129272 443.521210,846.050659 
	C445.401398,845.421692 446.170807,843.457397 445.615906,841.517761 
	C444.825012,838.753296 442.858826,836.729431 439.940796,836.838501 
	C436.913452,836.951721 435.985565,839.371216 436.190460,842.773560 
M667.457520,906.869263 
	C667.217163,909.051697 667.939148,910.798340 669.942810,911.797668 
	C671.624329,912.636292 673.366516,914.418884 675.288513,912.597168 
	C676.668884,911.288818 676.963379,909.375488 676.341187,907.532349 
	C675.098877,903.852051 670.364746,903.147522 667.457520,906.869263 
M556.565247,846.029419 
	C552.756470,847.106506 550.669006,844.920898 549.186646,841.298401 
	C546.900818,848.556641 547.564026,851.669739 551.462585,852.159180 
	C555.502991,852.666504 556.827576,849.939209 556.565247,846.029419 
M485.498322,813.576233 
	C487.018524,809.257690 484.013611,802.822327 480.086761,801.874329 
	C478.350037,801.455139 477.093414,801.910706 476.585571,803.644287 
	C476.018799,805.578796 476.864105,807.220459 478.784027,807.318420 
	C482.814270,807.523926 483.844177,810.432312 485.498322,813.576233 
M396.470459,854.844543 
	C397.521515,853.518494 397.979736,851.493774 396.606476,850.850464 
	C392.522949,848.937500 392.559662,845.667603 393.099884,841.955200 
	C391.179077,844.845703 390.876160,848.098145 390.640472,851.083069 
	C390.404755,854.068237 391.489319,857.397766 396.470459,854.844543 
M644.760925,858.234070 
	C645.488098,859.623840 645.403931,861.847046 647.657959,861.770203 
	C649.524292,861.706543 650.637634,860.495483 650.730225,858.548035 
	C646.189209,855.004089 646.189209,855.004089 644.760925,858.234070 
M414.648621,69.883537 
	C416.030579,70.811157 417.737274,71.408180 418.039612,69.214653 
	C418.324738,67.145859 417.112762,65.455681 414.683502,65.366272 
	C412.972839,66.636559 413.592224,68.012611 414.648621,69.883537 
M461.281006,897.501282 
	C459.779999,899.862976 460.056641,901.877747 462.157806,904.417236 
	C463.865845,901.294373 460.957825,899.830200 461.281006,897.501282 
z"/>
<path fill="#000000" opacity="1.000000" stroke="none" 
	d="
M719.416138,238.447601 
	C729.381897,241.536179 729.592590,241.541458 729.335022,251.811401 
	C728.806030,272.903931 728.213440,293.998322 727.291260,315.076385 
	C726.602661,330.817169 725.717163,346.566528 724.284424,362.254059 
	C721.080078,397.340088 716.039551,432.137726 704.184021,465.526154 
	C692.301025,498.992035 675.599426,529.867676 653.525818,557.796570 
	C624.857971,594.068787 589.680725,622.509644 549.401184,644.860901 
	C538.794617,650.746399 528.121582,656.512512 517.456665,662.292114 
	C514.440674,663.926575 511.636780,664.384399 508.077484,662.757019 
	C474.607880,647.453674 443.504822,628.309265 415.531189,604.454346 
	C380.828583,574.861267 353.226929,539.543823 333.654480,498.204193 
	C319.420166,468.139404 310.444977,436.475891 305.552368,403.610779 
	C302.819214,385.251343 300.429443,366.882843 299.462677,348.304138 
	C298.712067,333.878448 298.039337,319.460175 297.461273,305.026367 
	C296.750244,287.273254 295.663269,269.537140 295.604095,251.760727 
	C295.592712,248.333176 293.013214,244.500824 295.406616,241.626892 
	C297.609253,238.982056 301.813477,239.289917 305.120941,238.307434 
	C326.861511,231.849350 343.189850,218.940201 353.112854,198.367325 
	C358.067413,188.095306 360.733337,177.141342 361.555664,165.815704 
	C362.155243,157.557861 363.173584,156.408279 371.291199,155.585724 
	C385.795715,154.115997 400.255554,152.198013 414.765533,150.791946 
	C425.327271,149.768463 435.938141,149.245728 446.529633,148.536850 
	C476.928558,146.502350 507.385254,145.928268 537.810364,146.801102 
	C559.672913,147.428314 581.554443,148.281097 603.382568,150.385971 
	C620.860046,152.071289 638.334534,153.790375 655.798767,155.612381 
	C659.368713,155.984833 662.153809,156.437668 662.519287,161.498764 
	C665.157776,198.029709 681.355042,226.046509 719.416138,238.447601 
M584.823242,571.306519 
	C598.945435,559.598938 611.255249,546.173096 622.825623,531.969727 
	C646.805115,502.533356 663.720764,469.376465 674.182556,433.067139 
	C683.355530,401.230957 686.995361,368.373108 688.418640,335.379822 
	C689.120178,319.118195 690.341064,302.820984 689.640747,286.503235 
	C689.562439,284.677979 689.896118,282.900940 690.264160,281.084808 
	C693.141235,266.890900 691.062073,261.448547 679.426575,255.036423 
	C666.567017,247.949799 656.553467,238.070770 648.503296,225.931793 
	C641.544800,215.439011 637.035767,203.831268 632.712891,192.138443 
	C631.414856,188.627472 629.210083,186.636765 625.632080,185.933868 
	C617.498962,184.336151 609.308105,183.130661 601.051392,182.427170 
	C589.477783,181.441040 577.888062,180.769028 566.278809,180.251587 
	C547.147339,179.398895 528.133179,177.173447 508.873993,177.499313 
	C495.582825,177.724197 482.328217,179.103195 468.993286,178.669006 
	C463.466156,178.489044 457.749847,179.106323 452.154510,179.659317 
	C437.645325,181.093277 423.137726,182.530884 408.658081,184.300446 
	C397.428223,185.672836 393.044373,188.719055 389.249939,199.586609 
	C380.178589,225.567368 364.619781,246.200745 339.587830,258.795197 
	C335.186829,261.009491 333.415680,264.260406 333.302032,269.137665 
	C333.127197,276.642578 334.918243,284.006836 334.423187,291.521637 
	C333.567871,304.504333 335.218689,317.440491 335.600647,330.398346 
	C335.760681,335.826874 335.855194,341.362366 336.521515,346.776855 
	C338.764374,365.001373 340.072266,383.323578 343.245514,401.456848 
	C349.115295,434.998871 359.733521,466.814178 376.865784,496.264801 
	C394.392426,526.393433 416.526459,552.715881 443.332520,575.118835 
	C462.563019,591.190552 483.378906,604.778381 505.391083,616.678650 
	C510.043213,619.193665 513.876282,619.153748 518.419434,616.653381 
	C541.808716,603.781128 564.159668,589.424500 584.823242,571.306519 
z"/>
<path fill="#000000" opacity="1.000000" stroke="none" 
	d="
M510.633240,87.198868 
	C510.706024,84.967239 511.895721,83.710510 512.949524,82.470970 
	C515.824341,79.089561 519.821655,78.916023 523.482910,80.076241 
	C526.805847,81.129250 525.320923,84.664017 525.302246,87.078354 
	C525.279785,89.976479 527.103088,94.098991 521.439026,94.403603 
	C513.867920,94.810776 511.495392,93.482620 510.633240,87.198868 
z"/>
<path fill="#000000" opacity="1.000000" stroke="none" 
	d="
M528.274170,929.707031 
	C532.022766,928.126587 535.545654,928.717529 539.016663,928.756409 
	C540.274780,928.770508 541.290405,929.375610 541.777832,930.555054 
	C542.290588,931.795471 541.859436,932.925537 540.783569,933.611694 
	C533.210327,938.441650 524.995117,940.628235 514.942383,939.984436 
	C518.546875,934.515869 523.065002,931.982178 528.274170,929.707031 
z"/>
<path fill="#000000" opacity="1.000000" stroke="none" 
	d="
M649.429443,94.310425 
	C645.911438,93.625671 644.015259,91.855309 643.707153,88.631813 
	C643.368835,85.092834 645.196655,82.576561 647.923157,80.793015 
	C650.741211,78.949600 654.082825,79.111458 656.985535,80.271507 
	C659.131287,81.129013 658.276489,83.776733 658.315430,85.665070 
	C658.496033,94.427521 658.457458,94.428314 649.429443,94.310425 
z"/>
<path fill="#000000" opacity="1.000000" stroke="none" 
	d="
M700.156433,93.067123 
	C696.731323,89.412132 696.757629,86.158157 700.060974,82.861290 
	C703.104004,79.824158 706.269958,80.116692 709.350830,82.495407 
	C711.528259,84.176620 712.953735,86.467209 711.822571,89.403580 
	C710.753113,92.179810 708.967407,94.247055 705.690857,94.305107 
	C703.900269,94.336838 702.036743,94.628937 700.156433,93.067123 
z"/>
<path fill="#000000" opacity="1.000000" stroke="none" 
	d="
M364.252869,876.139648 
	C364.296143,878.281372 363.653809,879.846375 362.489258,881.023315 
	C361.049622,882.478088 359.042297,883.349792 357.144257,882.421326 
	C355.180267,881.460571 355.312042,879.209351 356.054779,877.593384 
	C357.318207,874.844421 357.445984,871.368225 360.798309,869.569519 
	C362.766815,871.131592 363.682220,873.329346 364.252869,876.139648 
z"/>
<path fill="#000000" opacity="1.000000" stroke="none" 
	d="
M523.187744,353.801819 
	C519.634399,348.960175 516.478210,344.618958 516.235291,338.365326 
	C516.034302,333.192993 509.727875,331.117767 504.468323,334.198730 
	C496.866119,338.651978 489.505798,343.518280 482.046112,348.214386 
	C479.793610,349.632446 477.473053,350.959656 475.324677,352.522308 
	C470.713531,355.876312 470.152740,359.547882 473.940216,363.393188 
	C479.992401,369.537659 482.946960,377.652985 488.163391,384.190460 
	C486.061829,387.584015 482.793732,388.736176 480.061707,390.532349 
	C474.442963,394.226379 474.282471,394.540802 477.264893,401.020477 
	C472.443298,403.930756 467.579559,406.963409 462.624969,409.839508 
	C445.077332,420.025848 427.487579,430.139648 409.938782,440.324005 
	C404.928192,443.231873 404.276642,443.200714 402.631683,437.835236 
	C397.750336,421.913391 396.324951,405.810608 399.162903,389.211456 
	C402.014740,372.530945 407.527618,356.996857 417.163818,343.150879 
	C436.002350,316.082336 461.768494,299.861389 494.603607,295.567413 
	C527.575745,291.255585 557.896851,298.337341 584.099121,319.152161 
	C605.273804,335.973145 618.297607,358.218750 623.363403,384.885529 
	C627.723755,407.838623 625.893799,430.165619 615.919006,451.547119 
	C615.498657,452.448090 614.967468,453.300354 614.444824,454.148773 
	C614.281372,454.414093 613.976196,454.592102 613.401062,455.113617 
	C612.037292,451.937958 609.943787,449.560272 606.495667,448.822540 
	C604.040588,448.297302 603.667480,446.596008 603.583618,444.362549 
	C603.298157,436.760437 600.861511,434.401062 593.133301,434.415131 
	C578.497253,434.441742 563.812134,435.362610 549.251709,435.008484 
	C535.921021,434.684235 522.730042,435.819489 509.472534,435.872284 
	C508.640289,435.875580 507.806427,435.918152 506.976593,435.984070 
	C504.004700,436.220184 501.545868,437.409363 501.696533,440.724609 
	C501.837830,443.834167 504.347443,444.656433 507.096649,444.668579 
	C515.094849,444.703857 523.093567,444.677490 531.090881,444.775391 
	C533.489319,444.804718 536.194336,444.406952 537.547607,447.330109 
	C536.191223,449.787537 533.874817,449.320496 531.795349,449.351562 
	C520.968201,449.513397 510.135315,449.473511 499.314789,449.823486 
	C493.431000,450.013824 492.338837,451.312500 492.397583,457.196899 
	C492.551819,472.647430 490.035614,470.504303 505.385895,470.551697 
	C536.545837,470.647888 567.706421,470.552124 598.866699,470.560730 
	C600.795898,470.561249 602.815613,470.191895 604.835815,471.282898 
	C604.309326,474.481506 601.925659,476.274536 600.196777,478.361115 
	C574.592468,509.263458 541.400208,522.930298 501.721252,520.103760 
	C466.176178,517.571716 439.083069,499.577209 418.069672,471.514618 
	C416.136536,468.933014 416.386902,467.252380 418.887665,465.294037 
	C440.007935,448.755035 461.067719,432.138763 482.156891,415.560059 
	C483.318909,414.646606 484.754913,413.244537 486.143158,414.384491 
	C489.935883,417.498871 492.073059,414.691528 494.619476,412.525177 
	C503.455139,405.008087 504.291199,405.172943 510.675812,414.779083 
	C512.825500,418.013489 514.219360,421.448669 514.974182,425.302216 
	C516.523315,433.211060 521.116943,435.333771 527.846191,431.138062 
	C537.449280,425.150452 546.913269,418.932617 556.310486,412.625061 
	C560.529297,409.793304 561.171936,403.320007 557.074097,400.767792 
	C550.177063,396.472168 546.948669,389.429291 542.597656,383.287842 
	C535.868835,373.790009 529.757202,363.854858 523.187744,353.801819 
z"/>
<path fill="#000000" opacity="1.000000" stroke="none" 
	d="
M410.095215,260.017944 
	C412.922546,265.645538 415.549255,270.963074 418.308197,276.548370 
	C414.275757,278.275574 411.562347,277.786438 409.626953,274.467865 
	C407.691071,271.148529 404.981537,270.060577 401.190033,270.992371 
	C399.125977,271.499634 396.861481,271.145477 394.757782,271.547821 
	C391.310364,272.207153 388.071716,272.939270 387.260162,277.496460 
	C386.543243,281.522217 383.681732,283.213074 378.886353,281.652557 
	C381.342346,272.423065 383.736908,263.332245 386.187714,254.256622 
	C387.268890,250.252975 388.448975,246.275696 389.613922,242.295151 
	C390.226929,240.200577 390.834351,238.065125 393.510864,237.707413 
	C396.086609,237.363144 397.826263,238.396652 399.388733,240.521774 
	C403.756592,246.462631 405.687500,253.704132 410.095215,260.017944 
M397.608643,264.645294 
	C399.998657,264.352234 402.101044,263.378571 401.706390,260.653198 
	C401.133209,256.694794 399.960419,251.389526 396.421509,250.676361 
	C392.348053,249.855423 393.391510,255.459152 392.143524,258.232697 
	C391.940155,258.684692 391.795135,259.175049 391.701904,259.662689 
	C390.776947,264.500031 391.698212,265.407745 397.608643,264.645294 
z"/>
<path fill="#000000" opacity="1.000000" stroke="none" 
	d="
M572.633057,254.148071 
	C573.605652,249.110275 573.466797,244.459778 573.733398,239.828964 
	C574.069702,233.986252 575.734253,232.907425 581.320374,234.046616 
	C584.718994,234.739716 588.102722,235.515640 591.517029,236.119202 
	C596.652222,237.026962 598.863831,240.621796 599.194397,245.226410 
	C599.524536,249.825546 598.541809,254.511444 593.790283,256.609436 
	C589.294495,258.594513 589.444214,260.985870 591.445129,264.757843 
	C593.595459,268.811615 595.124084,273.195190 596.989563,277.589294 
	C591.935913,279.448822 589.235474,277.545380 587.712952,273.300629 
	C586.036438,268.626373 584.044617,264.132935 580.328674,259.841888 
	C579.291382,263.790619 578.289673,267.133514 578.327942,270.796082 
	C578.390442,276.782104 578.025818,276.960938 571.490234,275.824677 
	C570.989746,268.706787 572.649536,261.704926 572.633057,254.148071 
M589.285583,241.913666 
	C586.546875,241.688217 583.387207,238.682388 581.211426,242.154587 
	C579.662842,244.625916 579.521301,247.941437 581.449097,250.553085 
	C582.790222,252.369965 589.497070,252.112335 590.643127,250.103287 
	C592.105774,247.539246 593.123901,244.562897 589.285583,241.913666 
z"/>
<path fill="#000000" opacity="1.000000" stroke="none" 
	d="
M550.558350,269.402100 
	C547.716431,264.941132 545.433228,260.489685 541.173523,257.190430 
	C538.461853,259.678070 539.629089,262.661102 539.398254,265.286987 
	C539.238403,267.106049 539.313843,268.947815 539.323608,270.779236 
	C539.334778,272.890259 538.688049,274.276245 536.224609,274.325043 
	C533.653809,274.375977 532.690491,273.203400 532.633179,270.722931 
	C532.417969,261.411957 534.222717,252.183762 533.645081,242.850357 
	C533.422791,239.258804 533.223938,235.573624 534.717529,232.141296 
	C539.075500,230.713242 540.756775,232.417496 540.368652,236.664185 
	C540.338501,236.994308 540.340820,237.332672 540.374390,237.662476 
	C540.599976,239.880722 539.486145,242.914566 542.244019,243.858307 
	C545.091980,244.832932 546.454773,242.229279 547.908752,240.115280 
	C552.579529,233.324371 555.558838,231.974640 563.332153,233.349060 
	C559.448059,237.879257 556.151123,242.374603 552.183167,246.168167 
	C548.286926,249.893250 547.404297,252.683640 551.143860,257.394562 
	C555.283752,262.609772 559.306458,268.150421 562.135315,274.542145 
	C556.246216,276.834808 553.268799,273.769836 550.558350,269.402100 
z"/>
<path fill="#000000" opacity="1.000000" stroke="none" 
	d="
M517.137695,247.621735 
	C519.093811,247.673615 520.594971,247.666504 522.085144,247.791702 
	C523.772217,247.933472 524.227051,249.099579 524.211365,250.599136 
	C524.195251,252.143921 523.562622,253.207977 521.924622,253.268265 
	C519.098022,253.372299 516.264404,253.476822 513.439758,253.388336 
	C509.932983,253.278503 508.334564,254.710739 508.147675,258.345764 
	C507.700775,267.038422 508.076080,267.545288 517.014832,267.640564 
	C518.344849,267.654755 519.677979,267.697357 521.002747,267.808411 
	C522.658447,267.947144 523.212463,269.028351 523.210815,270.555023 
	C523.209106,272.095947 522.606934,273.233398 520.964355,273.248444 
	C515.308411,273.300171 509.650574,273.307007 503.995392,273.214508 
	C502.008759,273.182007 501.692596,271.579346 501.689789,270.001801 
	C501.668427,258.015411 501.696106,246.028931 501.653351,234.042648 
	C501.643982,231.415161 502.999359,230.568069 505.391083,230.591995 
	C510.551422,230.643585 515.712585,230.615555 520.873291,230.638290 
	C522.695007,230.646317 524.140747,231.078796 524.242188,233.350571 
	C524.357849,235.942474 522.777283,236.382294 520.727966,236.382248 
	C518.896729,236.382202 517.065491,236.411804 515.234253,236.414963 
	C511.641602,236.421173 508.250824,236.100754 508.260071,241.606018 
	C508.268829,246.827484 510.938019,247.844482 515.179749,247.620102 
	C515.677734,247.593750 516.178528,247.619537 517.137695,247.621735 
z"/>
<path fill="#000000" opacity="1.000000" stroke="none" 
	d="
M476.177979,252.349731 
	C477.742767,248.815613 479.039246,245.574646 480.569763,242.448273 
	C482.246124,239.024017 480.540100,237.829437 477.514954,237.525589 
	C475.537964,237.327026 473.531647,237.374161 471.539062,237.389862 
	C469.465454,237.406189 468.451721,236.500504 468.605713,234.375687 
	C468.726166,232.713943 468.586823,230.766403 470.963226,230.739639 
	C477.872375,230.661804 484.782959,230.712021 492.780151,230.712021 
	C487.587677,243.207993 482.812256,254.700211 477.977844,266.334473 
	C481.514740,268.511810 484.906708,267.284760 488.086548,267.635437 
	C490.069824,267.854187 492.270355,267.548981 492.210114,270.594574 
	C492.158020,273.227478 490.312408,273.375824 488.413635,273.383148 
	C481.792755,273.408722 475.171722,273.393066 467.994873,273.393066 
	C469.717773,265.697906 473.764008,259.526703 476.177979,252.349731 
z"/>
<path fill="#000000" opacity="1.000000" stroke="none" 
	d="
M621.762512,281.470917 
	C616.729675,281.894501 614.838379,280.378296 616.539246,275.239655 
	C619.677124,265.759247 615.910339,256.979004 612.909485,248.203568 
	C611.684509,244.621399 610.365723,241.071274 608.977844,237.194122 
	C613.996033,236.537979 616.969666,238.353394 618.307495,242.829697 
	C618.829163,244.575073 619.243835,246.354477 619.816956,248.082016 
	C621.610107,253.487579 623.299622,253.824875 627.099976,249.409256 
	C628.498657,247.784195 629.458374,245.786026 630.820251,244.123489 
	C633.485901,240.869370 636.671631,239.547104 641.004761,241.930313 
	C639.279297,246.423004 636.559998,249.987854 633.347229,252.975128 
	C626.440491,259.397064 623.520874,267.330048 623.381958,276.511810 
	C623.356201,278.216858 623.146179,279.813477 621.762512,281.470917 
z"/>
<path fill="#000000" opacity="1.000000" stroke="none" 
	d="
M444.107361,275.321777 
	C438.332916,277.010437 432.775269,276.005341 427.273407,276.830170 
	C425.986847,274.300110 425.625824,271.597351 425.582794,268.744141 
	C425.445862,259.664368 424.931305,250.605316 423.649139,241.600845 
	C423.463837,240.299469 423.659058,238.946381 423.644592,237.617599 
	C423.621765,235.520508 424.687408,234.657440 426.729523,234.655777 
	C428.817017,234.654037 430.179565,235.162750 430.348877,237.647232 
	C430.944489,246.388260 431.957489,255.110291 432.252472,263.858398 
	C432.399658,268.223083 433.935150,269.968689 438.169067,269.637451 
	C439.654785,269.521240 441.163574,269.577576 442.653625,269.677521 
	C443.918365,269.762360 445.538818,269.434998 446.005951,271.118164 
	C446.452301,272.726288 446.722504,274.470367 444.107361,275.321777 
z"/>
<path fill="#000000" opacity="1.000000" stroke="none" 
	d="
M510.307739,348.491821 
	C501.524658,354.313019 493.169189,360.198883 483.703735,364.144196 
	C484.380676,360.176422 487.683014,359.272461 490.164368,357.617828 
	C495.789429,353.866852 501.599274,350.391083 507.369720,346.861847 
	C508.456421,346.197205 509.714722,345.239044 511.015167,346.237061 
	C511.935425,346.943329 511.057739,347.657715 510.307739,348.491821 
z"/>
<path fill="#000000" opacity="1.000000" stroke="none" 
	d="
M540.245728,406.295898 
	C533.234680,410.075378 527.696777,416.041351 519.480225,416.640594 
	C527.661926,410.705719 535.212891,403.795197 545.804504,400.056274 
	C545.059082,404.135803 542.306885,404.625793 540.245728,406.295898 
z"/>
</svg>